# xmcd
#
# Track frame offsets: 
#        150
#        6733
#        16172
#        26985
#        34269
#        38935
#        43543
#        48341
#        54206
#        58454
#        67425
#
# Disc length: 1038 seconds
#
# Revision: 0
# Processed by: cddbd v1.5.2PL0 Copyright (c) Steve Scherf et al.
# Submitted via: ExactAudioCopy v1.0b2
#
DISCID=a1040c0b
DTITLE=The Seers - Universal Tree
DYEAR=2010
DGENRE=Blues
TTITLE0=Universal Tree
TTITLE1=Mechanical Brain
TTITLE2=Sun Will Burn Out
TTITLE3=Foolish Parades
TTITLE4=Small Victories
TTITLE5=Madness Circle
TTITLE6=Never Want
TTITLE7=End of the Day
TTITLE8=Interlude
TTITLE9=Hold My Hand
TTITLE10=Universal Tree
EXTD=
EXTT0=
EXTT1=
EXTT2=
EXTT3=
EXTT4=
EXTT5=
EXTT6=
EXTT7=
EXTT8=
EXTT9=
EXTT10=
PLAYORDER=
